<?xml version="1.0" encoding="UTF-8" standalone="no"?>
<!-- Created with Inkscape (http://www.inkscape.org/) -->

<svg
   xmlns:osb="http://www.openswatchbook.org/uri/2009/osb"
   xmlns:dc="http://purl.org/dc/elements/1.1/"
   xmlns:cc="http://creativecommons.org/ns#"
   xmlns:rdf="http://www.w3.org/1999/02/22-rdf-syntax-ns#"
   xmlns:svg="http://www.w3.org/2000/svg"
   xmlns="http://www.w3.org/2000/svg"
   xmlns:sodipodi="http://sodipodi.sourceforge.net/DTD/sodipodi-0.dtd"
   xmlns:inkscape="http://www.inkscape.org/namespaces/inkscape"
   width="210mm"
   height="297mm"
   viewBox="0 0 210 297"
   version="1.1"
   id="svg8"
   inkscape:version="0.92.4 (5da689c313, 2019-01-14)"
   sodipodi:docname="avatar.svg">
  <defs
     id="defs2">
    <linearGradient
       id="linearGradient2913"
       osb:paint="solid">
      <stop
         style="stop-color:#ffffff;stop-opacity:1;"
         offset="0"
         id="stop2911" />
    </linearGradient>
    <linearGradient
       id="linearGradient3921"
       osb:paint="solid">
      <stop
         style="stop-color:#9ab4d3;stop-opacity:1;"
         offset="0"
         id="stop3919" />
    </linearGradient>
    <linearGradient
       class="svga-on-canvas-glasses-gradient-single-0-null"
       gradientUnits="userSpaceOnUse"
       gradientTransform="matrix(0.63357089,0,0,-0.63357089,105.10643,294.49424)"
       y2="87.432999"
       x2="81"
       y1="113.2516"
       x1="81"
       id="SvgjsLinearGradient15667-5"
       spreadMethod="pad">
      <stop
         offset="0"
         stop-color="#9ab4d3"
         stop-opacity="1"
         id="SvgjsStop15668-4" />
      <stop
         offset="0.2407"
         stop-color="#93aed1"
         stop-opacity="0.7593"
         id="SvgjsStop15669-1" />
      <stop
         offset="0.5991"
         stop-color="#7e9ecc"
         stop-opacity="0.4009"
         id="SvgjsStop15670-2" />
      <stop
         offset="1"
         stop-color="#6086c4"
         stop-opacity="0"
         id="SvgjsStop15671-1" />
    </linearGradient>
    <linearGradient
       class="svga-on-canvas-glasses-gradient-single-1-null"
       gradientUnits="userSpaceOnUse"
       gradientTransform="matrix(-0.63357089,0,0,-0.63357089,168.46351,294.49424)"
       y2="87.433"
       x2="-19"
       y1="113.2516"
       x1="-19"
       id="SvgjsLinearGradient15673-6"
       osb:paint="gradient">
      <stop
         offset="0"
         stop-color="#9ab4d3"
         stop-opacity="1"
         id="SvgjsStop15674-1" />
      <stop
         offset="0.2407"
         stop-color="#93aed1"
         stop-opacity="0.7593"
         id="SvgjsStop15675-3" />
      <stop
         offset="0.5991"
         stop-color="#7e9ecc"
         stop-opacity="0.4009"
         id="SvgjsStop15676-3" />
      <stop
         offset="1"
         stop-color="#6086c4"
         stop-opacity="0"
         id="SvgjsStop15677-8" />
    </linearGradient>
    <clipPath
       clipPathUnits="userSpaceOnUse"
       id="clipPath1891">
      <path
         style="fill:none;stroke:#000000;stroke-width:0.26458332px;stroke-linecap:butt;stroke-linejoin:miter;stroke-opacity:1"
         d="m 106.49999,24.899995 -21.199995,2.900004 -12.299994,13.899996 -9.300006,3 -8.699994,10.900004 -4.300006,23.099993 -0.005,18.7449 -1.395176,5.455098 1.56353,5.4882 -0.16353,13.1118 -1.8,11 -4.900004,9.2 7.700004,-9.2 -4.900004,15.1 9,-17.6 -0.222413,4.4838 -2.177587,7.0162 2.093404,-3.48066 -0.1934,5.58066 -2.837064,10.4976 5.976744,-12.9636 v -0.16836 l 1.160316,4.33436 0.300004,0.10004 -2.8,11 4.899996,-8.70004 -1.8,9.70004 4.300597,-7.63764 1.499403,1.63764 0.6,-0.8 c 0,0 1.39404,0.67756 1.351947,0.97223 -0.04208,0.2946 -1.151947,7.12773 -1.151947,7.12773 l 2.49882,-5.86503 3.156724,2.31493 -0.55554,5.1501 1.523603,-4.26623 2.104493,1.5994 -0.1281,3.76687 -1,1.29996 -17.6,9.70004 -27.8,7 -9.499996,20.09996 -3.2,20.50004 H 183.69978 l -3.2,-20.50004 -9.6,-20.09996 -27.7,-7 -17.6,-9.70004 -1,-1.29996 -0.25477,-3.48337 2.25477,-2.01667 3.3,2.10004 -1.68571,-3.2381 3.2738,-2.55954 0.71191,1.19764 4.4,3.6 -3.3,-5.4 -0.15989,-0.6179 0.56011,-0.48214 0.6,0.8 1.0125,-1.25536 0.28751,0.55536 3.3,2.3 -2.01013,-4.71546 2.81012,-3.48454 0.50001,1.3 1,5.6 0.76428,-5.52856 0.0358,-1.37144 -0.58632,-2.48273 0.56548,-2.32143 2.24703,3.46726 1.37381,3.3369 2.09999,1.3 -3.67093,-16.53613 0.4735,-1.99927 3.39743,8.8354 5.4,7.7 -4.89999,-13.6 -1.30001,-10.8 4.6,12.8 -3.27738,-22.85236 2.27738,-8.64764 -3.24463,-11.530931 -0.85536,-26.76906 -10.6,-26.099994 -29.5,-13.6"
         id="path1893"
         inkscape:connector-curvature="0"
         sodipodi:nodetypes="ccccccccccccccccccccccccccccccccccccccccccccccccccccccccc" />
    </clipPath>
  </defs>
  <sodipodi:namedview
     id="base"
     pagecolor="#ffffff"
     bordercolor="#666666"
     borderopacity="1.0"
     inkscape:pageopacity="0.0"
     inkscape:pageshadow="2"
     inkscape:zoom="0.35"
     inkscape:cx="-447.85255"
     inkscape:cy="-337.9975"
     inkscape:document-units="mm"
     inkscape:current-layer="svga-group-humanwrap"
     showgrid="false"
     inkscape:window-width="3840"
     inkscape:window-height="2115"
     inkscape:window-x="-13"
     inkscape:window-y="-13"
     inkscape:window-maximized="1" />
  <metadata
     id="metadata5">
    <rdf:RDF>
      <cc:Work
         rdf:about="">
        <dc:format>image/svg+xml</dc:format>
        <dc:type
           rdf:resource="http://purl.org/dc/dcmitype/StillImage" />
        <dc:title></dc:title>
      </cc:Work>
    </rdf:RDF>
  </metadata>
  <g
     inkscape:label="Layer 1"
     inkscape:groupmode="layer"
     id="layer1">
    <g
       style="overflow:hidden;stroke-width:0.63357085"
       id="g1887"
       transform="matrix(1.2528196,0,0,1.2528196,-20.17642,-6.1802857)"
       clip-path="url(#clipPath1891)">
      <g
         id="svga-group-wrapper"
         style="stroke-width:0.63357085">
        <g
           id="svga-group-backs-single"
           style="stroke-width:0.63357085">
          <path
             d="M 0,0 H 200 V 200 H 0 Z"
             id="SvgjsPath15638"
             inkscape:connector-curvature="0"
             style="opacity:1;fill:#ecf0f1;stroke-width:0.63357085" />
        </g>
        <g
           id="svga-group-humanwrap-move"
           style="stroke-width:0.63357085">
          <g
             id="svga-group-humanwrap"
             style="stroke-width:0.63357085">
            <g
               id="svga-group-hair-back-move"
               style="stroke-width:0.63357085">
              <g
                 id="svga-group-hair-back"
                 style="stroke-width:0.63357085">
                <path
                   d="M 73.5,42.9 55,55.6 50.7,78.7 v 42.8 l -1.8,11 -4.9,9.2 7.7,-9.2 -4.9,15.1 6.4,-11.5 2.6,-6.1 -0.5,13.6 c 0,0 -3.3,11.5 -2.8,10.8 0.5,-0.7 5.1,-10.8 5.1,-10.8 l 3.6,-9.5 -1.3,11.3 -2.8,11 4.9,-8.7 -1.8,9.7 4.9,-8.7 3.8,-9.2 -0.8,11 -1.3,8.2 3.8,-8.7 1.8,-9.2 0.5,9.5 -1,10 2.8,-7.7 1.3,8.2 6.2,-11.8 38.7,0.3 3.1,10.5 0.5,-11.8 2.1,7.9 3.3,2.1 -2.3,-4.6 -1,-10.2 5.6,10.2 4.4,3.6 -3.3,-5.4 -2.6,-10.5 4.9,9.5 3.3,2.3 -3.3,-7.7 -0.3,-12.3 4.9,13.1 1,5.6 c 0,0 1,-5.6 0.8,-6.9 -0.3,-1.3 -3.1,-14.1 -3.1,-14.1 l 6.7,16.1 2.1,1.3 -5.4,-24.3 5.6,14.6 5.4,7.7 -4.9,-13.6 -1.3,-10.8 4.6,12.8 c 0,0 -3.3,-22 -3.3,-23.3 C 148.4,109.8 147,82 147,82 L 146.6,64.6 113.9,37.5 Z"
                   id="SvgjsPath15744"
                   inkscape:connector-curvature="0"
                   style="opacity:1;fill:#452c22;stroke:none;stroke-width:0.63357085" />
              </g>
            </g>
            <g
               id="svga-group-humanbody-back"
               style="stroke-width:0.63357085">
              <path
                 d="m 170,180.3 -27.3,-6.9 -18,-9.9 -1.5,-28.2 H 76.8 l -1.5,28.2 -18,9.9 -27.3,6.9 -9.1,19.7 -3,20 h 164.2 l -3,-20 z"
                 id="SvgjsPath15581"
                 inkscape:connector-curvature="0"
                 style="opacity:1;fill:#f0c7b1;stroke:none;stroke-width:0.63357085" />
              <path
                 d="m 76.8,135.3 -1.5,28.2 -18,9.9 -27.3,6.9 -9.1,19.7 -3,20 h 14.6 v -20 l 2.7,-17.7 23.8,-6.4 24.7,-8.3 3.5,-32.3 z"
                 id="SvgjsPath15582"
                 inkscape:connector-curvature="0"
                 style="opacity:1;fill:#d19271;stroke:none;stroke-width:0.63357085" />
            </g>
            <g
               id="svga-group-chinshadow-single"
               style="stroke-width:0.63357085">
              <path
                 d="m 110,156.9 2.4,-3.4 11.4,-7.5 -0.6,-10.7 H 76.8 l -0.7,14.3 5.9,3.9 2.4,3.4 5.4,2.7 h 14.8 z"
                 id="SvgjsPath15577"
                 inkscape:connector-curvature="0"
                 style="opacity:1;fill:#c27b55;stroke:none;stroke-width:0.63357085" />
            </g>
            <g
               id="svga-group-humanbody-front"
               style="stroke-width:0.63357085">
              <path
                 d="m 92.8,168.3 2,7.9 6.9,4.6 c 0,0 -8.5,-3 -8.7,-3.6 -0.2,-0.6 -0.2,-8.9 -0.2,-8.9 z"
                 id="SvgjsPath15583"
                 inkscape:connector-curvature="0"
                 style="opacity:1;fill:#d19271;stroke:none;stroke-width:0.63357085" />
            </g>
            <g
               id="svga-group-clothes-single"
               style="stroke-width:0.63357085">
              <path
                 d="m 183.7,220 -3.2,-20.5 -9.6,-20.1 -27.7,-7 -17.6,-9.7 -1,-1.3 0.1,2.1 0.7,2.9 -8.8,10.2 -9.4,4.2 H 92.8 l -9.4,-4.2 -8.8,-10.2 0.7,-2.9 0.1,-2.1 -1,1.3 -17.6,9.7 -27.8,7 -9.5,20.1 -3.2,20.5 z"
                 id="SvgjsPath16182"
                 inkscape:connector-curvature="0"
                 style="opacity:1;fill:#83a6b2;stroke:none;stroke-width:0.63357085" />
              <path
                 d="m 72,164.1 -1.1,3.8 7.9,11.6 13.9,6.6 9,1.2 h -8.9 l -14,-6.5 -8.7,-12.5 1.5,-4 z m -42.4,42.9 3.5,-14.5 2.9,0.7 2.5,9.3 -1.6,-9.4 -3.3,-8.9 27.6,-5.8 12,-6.2 4.2,-2.5 -2.8,-3.2 0.7,-2.9 0.1,-2.1 -1,1.3 -17.7,9.7 -27.7,7 -9.6,20.1 -3.1,20.4 h 13.2 z m 13.6,8.7 -1.8,-6.5 0.2,10.8 h 2.1 z m 84.8,-51.6 1.1,3.8 -7.9,11.6 -13.9,6.6 -9,1.2 h 8.9 l 14,-6.5 8.7,-12.5 -1.5,-4 z m 28.8,51.6 1.8,-6.5 -0.2,10.8 h -2.1 z"
                 id="SvgjsPath16183"
                 inkscape:connector-curvature="0"
                 style="opacity:1;fill:#6794a3;stroke:none;stroke-width:0.63357085" />
            </g>
            <g
               id="svga-group-head"
               style="stroke-width:0.63357085">
              <g
                 id="svga-group-ears-left-move"
                 style="stroke-width:0.63357085">
                <g
                   id="svga-group-ears-left"
                   style="stroke-width:0.63357085">
                  <path
                     d="m 58.4,92.2 -5,-3.9 -4.1,14.6 2.7,10.2 5.7,5.1 3.6,-0.9 2.8,-7.6 -1.4,-12.6 z"
                     id="SvgjsPath15473"
                     inkscape:connector-curvature="0"
                     style="opacity:1;fill:#f0c7b1;stroke:none;stroke-width:0.63357085" />
                  <path
                     d="m 51.4,102 3.2,-6.3 2.8,5.5 0.5,8 c 0,0 -3.1,-0.7 -3.2,-1 0,-0.3 1.2,-6.5 1.1,-6.8 -0.1,-0.3 -1,-3.6 -1.2,-3.5 -0.1,0.1 -3.2,4.1 -3.2,4.1 z"
                     id="SvgjsPath15474"
                     inkscape:connector-curvature="0"
                     style="opacity:1;fill:#d19271;stroke:none;stroke-width:0.63357085" />
                  <path
                     d="m 60,113.6 -1.4,-16.5 -5.2,-8.8 5.9,2.8 3.4,6 1.4,12.6 -2.8,7.6 -3.6,0.9 -5.7,-5.1 c 0,0 5.4,2.1 5.5,2.1 0.3,0.1 2.5,-1.6 2.5,-1.6 z"
                     id="SvgjsPath15475"
                     inkscape:connector-curvature="0"
                     style="opacity:1;fill:#e1ac8f;stroke:none;stroke-width:0.63357085" />
                </g>
              </g>
              <g
                 id="svga-group-ears-right-move"
                 style="stroke-width:0.63357085">
                <g
                   id="svga-group-ears-right"
                   style="stroke-width:0.63357085">
                  <path
                     d="m 141.6,92.2 5,-3.9 4.1,14.6 -2.7,10.2 -5.7,5.1 -3.6,-0.9 -2.8,-7.6 1.4,-12.6 z"
                     id="SvgjsPath15476"
                     inkscape:connector-curvature="0"
                     style="opacity:1;fill:#f0c7b1;stroke:none;stroke-width:0.63357085" />
                  <path
                     d="m 148.6,102 -3.2,-6.3 -2.8,5.5 -0.5,8 c 0,0 3.1,-0.7 3.2,-1 0.1,-0.3 -1.2,-6.5 -1.1,-6.8 0.1,-0.3 1,-3.6 1.2,-3.5 0.1,0.1 3.2,4.1 3.2,4.1 z"
                     id="SvgjsPath15477"
                     inkscape:connector-curvature="0"
                     style="opacity:1;fill:#d19271;stroke:none;stroke-width:0.63357085" />
                  <path
                     d="m 140,113.6 1.4,-16.5 5.2,-8.8 -5.9,2.8 -3.4,6 -1.4,12.6 2.8,7.6 3.6,0.9 5.7,-5.1 c 0,0 -5.4,2.1 -5.5,2.1 -0.3,0.1 -2.5,-1.6 -2.5,-1.6 z"
                     id="SvgjsPath15478"
                     inkscape:connector-curvature="0"
                     style="opacity:1;fill:#e1ac8f;stroke:none;stroke-width:0.63357085" />
                </g>
              </g>
              <g
                 id="svga-group-faceshape-wrap"
                 style="stroke-width:0.63357085">
                <g
                   id="svga-group-faceshape-single"
                   style="stroke-width:0.63357085">
                  <path
                     d="M 143.4,84.8 C 143.2,74.6 138.1,60 138.1,60 131.2,48.4 118.4,40.5 118.4,40.5 111.2,39 100,38.2 100,38.2 c 0,0 -11.1,0.8 -18.4,2.3 0,0 -12.8,7.9 -19.7,19.5 0,0 -5.1,14.5 -5.3,24.8 l 2.1,35.8 5,13.4 21.2,13.8 2.4,3.4 5.3,2.7 h 14.8 l 5.3,-2.7 2.4,-3.4 21.2,-13.8 5,-13.4 z"
                     id="SvgjsPath15563"
                     inkscape:connector-curvature="0"
                     style="opacity:1;fill:#f0c7b1;stroke:none;stroke-width:0.63357085" />
                  <path
                     d="M 106.7,152.5 H 91.9 l -2,-4.6 -22.8,-15.7 -2.8,-15.4 -3.1,-32.7 5.1,-22.2 16.5,-18.8 17.1,-2.8 18.5,0.2 C 111.2,39 100,38.2 100,38.2 c 0,0 -11.1,0.8 -18.4,2.3 0,0 -12.8,7.9 -19.7,19.5 0,0 -5.1,14.5 -5.3,24.8 l 2.1,35.8 5,13.4 21.2,13.8 2.4,3.4 5.3,2.7 h 14.8 l 5.3,-2.7 2.4,-3.4 21.2,-13.8 -24.5,12.7 z"
                     id="SvgjsPath15564"
                     inkscape:connector-curvature="0"
                     style="opacity:1;fill:#d19271;stroke:none;stroke-width:0.63357085" />
                </g>
              </g>
              <g
                 id="svga-group-mouth-single-move"
                 style="stroke-width:0.63357085">
                <g
                   id="svga-group-mouth-single"
                   style="stroke-width:0.63357085">
                  <path
                     transform="translate(0,2)"
                     d="m 84.24,127.12 9.86,1.08 6.5,2.2 6,-2.7 9.84,-0.08 -10.24,-1.72 H 93.3 Z"
                     id="SvgjsPath15656"
                     inkscape:connector-curvature="0"
                     style="opacity:1;fill:#da7c87;stroke:none;stroke-width:0.63357085" />
                  <path
                     transform="translate(0,2)"
                     d="m 88.92,131.27 6.38,2.43 10.5,0.3 4.52,-2.63 L 106,135 H 95.2 Z"
                     id="SvgjsPath15657"
                     inkscape:connector-curvature="0"
                     style="opacity:1;fill:#d19271;stroke:none;stroke-width:0.63357085" />
                </g>
              </g>
              <g
                 id="svga-group-eyes-left-move"
                 style="stroke-width:0.63357085">
                <g
                   id="svga-group-eyes-left"
                   style="stroke-width:0.63357085">
                  <g
                     id="svga-group-eyesback-left"
                     style="stroke-width:0.63357085">
                    <path
                       d="m 89.9,95.9 c 0,0 -3.2,-4.2 -4.4,-5.4 l -7.6,-0.2 c 0,0 -3.9,3.4 -5.6,5.9 l 4.5,5 8,0.2 c 0,0 3.5,-2.8 5.1,-5.5 z"
                       id="SvgjsPath15517"
                       inkscape:connector-curvature="0"
                       style="opacity:1;fill:#ffffff;stroke-width:0.63357085" />
                  </g>
                  <g
                     id="svga-group-eyesiriswrapper-left"
                     style="stroke-width:0.63357085">
                    <g
                       id="svga-group-eyesiriscontrol-left"
                       style="stroke-width:0.63357085">
                      <g
                         id="svga-group-eyesiris-left"
                         style="stroke-width:0.63357085">
                        <path
                           d="m 76.76,97.53 -0.81,-3.95 2.22,-3.37 3.94,-0.81 3.37,2.22 0.81,3.95 -2.22,3.36 -3.95,0.81 z"
                           id="SvgjsPath15598"
                           inkscape:connector-curvature="0"
                           style="opacity:1;fill:#085717;stroke-width:0.63357085" />
                        <path
                           d="M 80,97.28 78.41,95.69 V 93.45 L 80,91.87 h 2.24 l 1.58,1.58 v 2.24 l -1.58,1.59 z"
                           id="SvgjsPath15599"
                           inkscape:connector-curvature="0"
                           style="opacity:1;fill:#000000;stroke-width:0.63357085" />
                        <path
                           d="m 85.71,91.46 -3.55,-2.34 -4.16,0.85 -2.34,3.55 0.85,4.16 3.55,2.34 4.16,-0.85 2.34,-3.55 z m -4.66,5.99 0.22,1.79 -0.58,0.12 v -1.91 z m 0.17,0 h 0.39 l 0.46,1.62 -0.63,0.13 z m 0.57,0 h 0.42 l 0.81,1.43 -0.78,0.16 z m 0.38,-0.35 h -2.1 l -1.48,-1.48 v -2.1 l 1.48,-1.48 h 2.1 l 1.48,1.48 v 2.1 z m -4,1.04 1.11,-1.34 0.26,0.26 c -0.26,0.52 -0.6,1.2 -0.75,1.49 z m 0.99,-1.46 -1.14,1.36 -0.54,-0.35 1.33,-1.35 z m 0.51,0.51 0.24,0.24 -0.28,1.67 -0.7,-0.46 c 0.11,-0.2 0.32,-0.61 0.74,-1.45 z m -2.89,-0.88 -0.18,-0.86 1.64,-0.23 v 0.41 z m 1.46,-1.78 -1.85,-0.11 -0.12,-0.57 1.97,0.23 z m 0,0.18 v 0.34 l -1.67,0.23 -0.14,-0.68 z m 0.11,-1.44 -1.63,-0.38 0.71,-1.07 1.41,0.97 z m -0.27,-2.45 c 0.17,0.18 0.57,0.53 1.45,1.28 l -0.57,0.57 -1.44,-0.99 z m 2.73,0.87 c -0.06,-0.38 -0.2,-1.24 -0.27,-1.7 l 0.74,-0.15 v 1.85 z m -0.18,0 h -0.36 l -0.85,-1.47 0.95,-0.2 c 0.09,0.6 0.21,1.33 0.26,1.67 z M 84,93.77 85.58,93.4 85.72,94.1 84,94.22 Z m 0,-0.18 v -0.21 l -0.27,-0.27 1.55,-1.2 0.27,1.33 z m -0.4,-0.61 -0.37,-0.37 1.29,-1.31 0.67,0.44 z M 83.11,92.49 82.62,92 83.35,90.53 84.37,91.2 Z M 82.49,91.87 82.32,91.7 h -0.27 l 0.23,-1.87 0.93,0.61 z m 0.7,4.7 1.25,1.32 -0.39,0.6 -1.22,-1.56 z m 0.13,-0.12 0.24,-0.24 1.49,0.78 -0.5,0.76 z M 83.69,96.08 84,95.76 v -0.11 c 0.34,0.09 1.04,0.29 1.62,0.46 l -0.47,0.72 z M 84,94.39 85.76,94.28 85.89,94.92 84,94.84 Z m -1.89,-4.68 -0.25,1.98 H 81.44 V 89.8 l 0.61,-0.13 z m -2.87,0.55 0.83,1.43 h -0.14 l -0.28,0.28 C 79.11,91.5 78.4,90.89 78.18,90.67 l 0.15,-0.22 z m -2.63,2.78 1.63,0.38 v 0.48 l -2,-0.23 -0.01,-0.04 z m 0.2,3.45 1.47,-0.68 0.41,0.41 L 77.34,97.6 77,97.37 Z m 2.98,2.72 0.29,-1.76 h 0.45 v 1.94 l -0.35,0.07 z m 3.41,-0.37 -0.82,-1.46 0.33,-0.33 1.24,1.59 -0.04,0.06 z m 2.51,-2.88 c -0.58,-0.17 -1.35,-0.39 -1.72,-0.49 v -0.46 l 1.93,0.07 0.09,0.43 z"
                           id="SvgjsPath15600"
                           inkscape:connector-curvature="0"
                           style="opacity:1;fill:#00380b;stroke-width:0.63357085" />
                        <path
                           d="m 80.63,91.91 -0.97,-0.29 -0.72,0.7 0.23,0.97 0.97,0.29 0.72,-0.7 z"
                           id="SvgjsPath15601"
                           inkscape:connector-curvature="0"
                           style="opacity:1;fill:#ffffff;stroke-width:0.63357085" />
                        <path
                           d="m 82.79,96.11 -0.59,-0.34 -0.59,0.34 v 0.68 l 0.59,0.34 0.59,-0.34 z"
                           id="SvgjsPath15602"
                           inkscape:connector-curvature="0"
                           style="opacity:1;fill:#ffffff;stroke-width:0.63357085" />
                      </g>
                    </g>
                  </g>
                  <g
                     id="svga-group-eyesfront-left"
                     style="stroke-width:0.63357085">
                    <path
                       d="m 67.1,89.3 v 11.9 l 7.9,8.4 h 11.2 l 7.9,-8.4 V 89.3 L 86.2,80.9 H 75 Z m 5.2,6.9 c 1.8,-2.5 5.6,-5.9 5.6,-5.9 l 7.6,0.2 c 1.2,1.2 4.4,5.4 4.4,5.4 -1.6,2.7 -5.1,5.5 -5.1,5.5 l -8,-0.2 z"
                       id="SvgjsPath15525"
                       inkscape:connector-curvature="0"
                       style="opacity:1;fill:#f0c7b1;stroke:none;stroke-width:0.63357085" />
                    <path
                       d="M 90.5,96.7 85.3,91 78.1,90.6 c 0,0 -5.1,4.8 -6.9,6.9 l 3.2,-4.7 3.2,-3.1 8.4,0.3 z"
                       id="SvgjsPath15526"
                       inkscape:connector-curvature="0"
                       style="opacity:1;fill:#000000;stroke:none;stroke-width:0.63357085" />
                    <path
                       d="m 90.2,93.8 -4.6,-6.6 -8.3,-0.4 c 0,0 -4.4,5.4 -6.3,8.9 0,0 2.7,-5.8 5.7,-9.2 l 9.3,0.2 z"
                       id="SvgjsPath15527"
                       inkscape:connector-curvature="0"
                       style="opacity:1;fill:#e1ac8f;stroke:none;stroke-width:0.63357085" />
                  </g>
                </g>
              </g>
              <g
                 id="svga-group-eyes-right-move"
                 style="stroke-width:0.63357085">
                <g
                   id="svga-group-eyes-right"
                   style="stroke-width:0.63357085">
                  <g
                     id="svga-group-eyesback-right"
                     style="stroke-width:0.63357085">
                    <path
                       d="m 110.1,95.9 c 0,0 3.2,-4.2 4.4,-5.4 l 7.6,-0.2 c 0,0 3.9,3.4 5.6,5.9 l -4.5,5 -8,0.2 c 0,0 -3.5,-2.8 -5.1,-5.5 z"
                       id="SvgjsPath15518"
                       inkscape:connector-curvature="0"
                       style="opacity:1;fill:#ffffff;stroke-width:0.63357085" />
                  </g>
                  <g
                     id="svga-group-eyesiriswrapper-right"
                     style="stroke-width:0.63357085">
                    <g
                       id="svga-group-eyesiriscontrol-right"
                       style="stroke-width:0.63357085">
                      <g
                         id="svga-group-eyesiris-right"
                         style="stroke-width:0.63357085">
                        <path
                           d="m 114.52,97.53 -0.81,-3.95 2.22,-3.37 3.95,-0.81 3.36,2.22 0.81,3.95 -2.22,3.36 -3.94,0.81 z"
                           id="SvgjsPath15603"
                           inkscape:connector-curvature="0"
                           style="opacity:1;fill:#085717;stroke-width:0.63357085" />
                        <path
                           d="m 117.76,97.28 -1.58,-1.59 v -2.24 l 1.58,-1.58 H 120 l 1.59,1.58 v 2.24 L 120,97.28 Z"
                           id="SvgjsPath15604"
                           inkscape:connector-curvature="0"
                           style="opacity:1;fill:#000000;stroke-width:0.63357085" />
                        <path
                           d="m 123.47,91.46 -3.55,-2.34 -4.16,0.85 -2.34,3.55 0.85,4.16 3.55,2.34 4.16,-0.85 2.34,-3.55 z m -4.66,5.99 0.22,1.79 -0.58,0.12 v -1.91 z m 0.18,0 h 0.39 l 0.46,1.62 -0.63,0.13 z m 0.57,0 h 0.42 l 0.81,1.43 -0.78,0.16 z m 0.37,-0.35 h -2.1 l -1.48,-1.48 v -2.1 l 1.48,-1.48 h 2.1 l 1.48,1.48 v 2.1 z m -4,1.04 1.11,-1.34 0.26,0.26 c -0.26,0.52 -0.6,1.2 -0.75,1.49 z m 0.99,-1.46 -1.14,1.36 -0.54,-0.35 1.33,-1.35 z m 0.51,0.51 0.24,0.24 -0.28,1.67 -0.7,-0.46 c 0.12,-0.2 0.32,-0.61 0.74,-1.45 z m -2.89,-0.88 -0.18,-0.86 1.64,-0.23 v 0.41 z m 1.46,-1.78 -1.85,-0.11 -0.12,-0.57 1.97,0.23 z m 0,0.18 v 0.34 l -1.67,0.23 -0.14,-0.68 z m 0.11,-1.44 -1.63,-0.38 0.71,-1.07 1.41,0.97 z m -0.27,-2.45 c 0.17,0.18 0.57,0.53 1.45,1.28 l -0.57,0.57 -1.44,-0.99 z m 2.73,0.87 c -0.06,-0.38 -0.2,-1.24 -0.27,-1.7 l 0.74,-0.15 v 1.85 z m -0.18,0 h -0.36 l -0.85,-1.47 0.95,-0.2 c 0.09,0.6 0.21,1.33 0.26,1.67 z m 3.37,2.08 1.58,-0.37 0.14,0.7 -1.72,0.11 z m 0,-0.18 v -0.21 l -0.27,-0.27 1.55,-1.2 0.27,1.33 z m -0.4,-0.61 -0.37,-0.37 1.29,-1.31 0.67,0.44 z m -0.49,-0.49 -0.49,-0.49 0.73,-1.47 1.02,0.67 z m -0.62,-0.62 -0.17,-0.17 h -0.27 l 0.23,-1.87 0.93,0.61 z m 0.71,4.7 1.25,1.32 -0.39,0.6 -1.22,-1.56 z m 0.12,-0.12 0.24,-0.24 1.49,0.78 -0.5,0.76 z m 0.37,-0.37 0.31,-0.31 v -0.11 c 0.34,0.09 1.04,0.29 1.62,0.46 l -0.47,0.72 z m 0.31,-1.69 1.76,-0.11 0.13,0.64 -1.89,-0.07 z m -1.88,-4.68 -0.25,1.98 h -0.42 V 89.8 l 0.61,-0.13 z m -2.88,0.55 0.83,1.43 h -0.14 l -0.28,0.28 c -0.54,-0.47 -1.25,-1.08 -1.47,-1.3 l 0.15,-0.22 z m -2.62,2.78 1.63,0.38 v 0.48 l -2,-0.23 -0.01,-0.04 z m 0.19,3.45 1.47,-0.68 0.41,0.41 -1.35,1.38 -0.34,-0.23 z m 2.98,2.72 0.29,-1.76 h 0.45 v 1.94 l -0.35,0.07 z m 3.41,-0.37 -0.82,-1.46 0.33,-0.33 1.24,1.59 -0.04,0.06 z m 2.52,-2.88 c -0.58,-0.17 -1.35,-0.39 -1.72,-0.49 v -0.46 l 1.93,0.07 0.09,0.43 z"
                           id="SvgjsPath15605"
                           inkscape:connector-curvature="0"
                           style="opacity:1;fill:#00380b;stroke-width:0.63357085" />
                        <path
                           d="m 118.39,91.91 -0.96,-0.29 -0.73,0.7 0.24,0.97 0.96,0.29 0.73,-0.7 z"
                           id="SvgjsPath15606"
                           inkscape:connector-curvature="0"
                           style="opacity:1;fill:#ffffff;stroke-width:0.63357085" />
                        <path
                           d="m 120.55,96.11 -0.59,-0.34 -0.59,0.34 v 0.68 l 0.59,0.34 0.59,-0.34 z"
                           id="SvgjsPath15607"
                           inkscape:connector-curvature="0"
                           style="opacity:1;fill:#ffffff;stroke-width:0.63357085" />
                      </g>
                    </g>
                  </g>
                  <g
                     id="svga-group-eyesfront-right"
                     style="stroke-width:0.63357085">
                    <path
                       d="m 125,80.8 h -11.2 l -7.9,8.4 v 11.9 l 7.9,8.4 H 125 l 7.9,-8.4 V 89.3 Z m -1.8,20.4 -8,0.2 c 0,0 -3.5,-2.8 -5.1,-5.5 0,0 3.2,-4.2 4.4,-5.4 l 7.6,-0.2 c 0,0 3.9,3.4 5.6,5.9 z"
                       id="SvgjsPath15528"
                       inkscape:connector-curvature="0"
                       style="opacity:1;fill:#f0c7b1;stroke:none;stroke-width:0.63357085" />
                    <path
                       d="m 109.5,96.7 5.2,-5.7 7.2,-0.4 c 0,0 5.1,4.8 6.9,6.9 l -3.2,-4.7 -3.2,-3.1 -8.4,0.3 z"
                       id="SvgjsPath15531"
                       inkscape:connector-curvature="0"
                       style="opacity:1;fill:#000000;stroke:none;stroke-width:0.63357085" />
                    <path
                       d="m 109.8,93.8 4.6,-6.6 8.3,-0.4 c 0,0 4.4,5.4 6.3,8.9 0,0 -2.7,-5.8 -5.7,-9.2 l -9.3,0.2 z"
                       id="SvgjsPath15532"
                       inkscape:connector-curvature="0"
                       style="opacity:1;fill:#e1ac8f;stroke:none;stroke-width:0.63357085" />
                  </g>
                </g>
              </g>
              <g
                 id="svga-group-facehighlight-single"
                 style="stroke-width:0.63357085" />
              <g
                 id="svga-group-eyebrows-left-move"
                 style="stroke-width:0.63357085">
                <g
                   transform="rotate(7.5000024,79.5,84.200001)"
                   id="svga-group-eyebrows-left-rotate"
                   style="stroke-width:0.63357085">
                  <g
                     id="svga-group-eyebrows-left"
                     style="stroke-width:0.63357085">
                    <path
                       d="m 92.8,80.6 -1.7,5.4 -2.4,1 -14.1,-2.3 -3.3,1.1 -5.1,3.3 c 0,0 3.4,-5.3 3.5,-5.7 0.1,-0.3 2.5,-4.1 2.5,-4.1 l 11.6,0.6 z"
                       id="SvgjsPath15436"
                       inkscape:connector-curvature="0"
                       style="opacity:1;fill:#543c32;stroke:none;stroke-width:0.63357085" />
                    <path
                       d="m 77.5,85.3 -0.4,-0.1 -1.2,-2.9 -3.8,-2.8 1.8,0.5 3.1,1.8 c 0.1,0 0.3,2.1 0.5,3.5 z m 2.9,0.4 h -0.2 c 0.1,-0.9 0.1,-2.4 0.1,-2.6 0,-0.2 0.6,-1.5 1.1,-2.6 l 0.3,0.1 c -0.4,1.6 -0.9,3.9 -1.3,5.1 z m 4.6,0.8 5.6,-5.6 h 0.6 c -0.8,1.4 -2,3.3 -2.2,3.5 -0.2,0.1 -1.8,1.2 -3.3,2.2 z m 0.1,-5.6 h 0.2 l -1.5,3.6 -1.3,1.6 -0.4,-0.1 z m -16.1,4 c 1.4,-0.5 2.6,-1 2.8,-1 0.2,-0.1 1.3,0.5 2.2,1.1 l -0.8,0.3 c -0.6,-0.1 -1,-0.2 -1.1,-0.3 -0.1,0 -1.8,0.3 -3.5,0.7 0.1,-0.3 0.3,-0.5 0.4,-0.8 z"
                       id="SvgjsPath15437"
                       inkscape:connector-curvature="0"
                       style="opacity:1;fill:#452c22;stroke:none;stroke-width:0.63357085" />
                  </g>
                </g>
              </g>
              <g
                 id="svga-group-eyebrows-right-move"
                 style="stroke-width:0.63357085">
                <g
                   transform="rotate(3.7500024,120.55,84.299999)"
                   id="svga-group-eyebrows-right-rotate"
                   style="stroke-width:0.63357085">
                  <g
                     id="svga-group-eyebrows-right"
                     style="stroke-width:0.63357085">
                    <path
                       d="m 107.2,80.6 1.8,5.5 2.4,1 14.1,-2.3 3.3,1.1 5.1,3.3 c 0,0 -3.4,-5.3 -3.5,-5.7 -0.1,-0.3 -2.5,-4.1 -2.5,-4.1 L 116.3,80 Z"
                       id="SvgjsPath15438"
                       inkscape:connector-curvature="0"
                       style="opacity:1;fill:#543c32;stroke:none;stroke-width:0.63357085" />
                    <path
                       d="m 122.5,85.3 0.4,-0.1 1.2,-2.9 3.8,-2.8 -1.8,0.5 -3.1,1.8 c -0.1,0 -0.3,2.1 -0.5,3.5 z m -2.9,0.4 h 0.2 c -0.1,-0.9 -0.1,-2.4 -0.1,-2.6 0,-0.2 -0.6,-1.5 -1.1,-2.6 l -0.3,0.1 c 0.4,1.6 0.9,3.9 1.3,5.1 z m -4.6,0.8 -5.6,-5.6 h -0.6 c 0.8,1.4 2,3.3 2.2,3.5 0.2,0.1 1.8,1.2 3.3,2.2 z m -0.1,-5.6 h -0.2 l 1.5,3.6 1.3,1.6 0.4,-0.1 z m 16.1,4 c -1.4,-0.5 -2.6,-1 -2.8,-1 -0.2,-0.1 -1.3,0.5 -2.2,1.1 l 0.8,0.3 c 0.6,-0.1 1,-0.2 1.1,-0.3 0.1,0 1.8,0.3 3.5,0.7 -0.1,-0.3 -0.3,-0.5 -0.4,-0.8 z"
                       id="SvgjsPath15439"
                       inkscape:connector-curvature="0"
                       style="opacity:1;fill:#452c22;stroke:none;stroke-width:0.63357085" />
                  </g>
                </g>
              </g>
              <g
                 id="svga-group-beardwrap"
                 style="stroke-width:0.63357085">
                <g
                   id="svga-group-beard-single-move"
                   style="stroke-width:0.63357085">
                  <g
                     id="svga-group-beard-single"
                     style="stroke-width:0.63357085">
                    <path
                       d="m 141.7,97.3 -2.5,4 -2.5,13.5 -4.9,9.5 -7.2,1.7 5.2,-5.5 -2.7,-6.3 -6.2,1.5 1.2,3.4 1,-2.1 2.7,0.8 -0.6,2.7 -4.1,2.3 -9.1,-4 -6.6,0.8 -4.5,2.1 h -1.5 l -4.5,-2.1 -6.6,-0.8 -9.1,4 -4.1,-2.3 -0.6,-2.7 2.7,-0.8 1,2.1 1.2,-3.4 -6.2,-1.5 -2.7,6.3 5.2,5.5 -7.2,-1.7 -5,-9.5 -2.5,-13.5 -2.5,-4 -0.5,24.6 1.7,23.4 1,-0.6 5.4,6.6 0.6,-0.8 11.6,9.1 0.6,-0.9 11.3,8.8 1,-0.6 8.3,4 h 1.5 l 8.3,-4 1,0.6 11.3,-8.8 0.6,0.9 11.5,-9.1 0.6,0.8 5.4,-6.6 1,0.6 5.4,-22.5 -1.9,-20.1 z m -34.3,47.6 -2.2,-3.8 -4.6,0.5 h -1.1 l -4.6,-0.5 -2.2,3.8 -11.6,-10.9 0.1,-6.3 9,1.1 5.7,-0.9 3.4,-1.4 h 1.7 l 3.4,1.4 5.7,0.9 9,-1.1 0.1,6.3 z"
                       id="SvgjsPath16142"
                       inkscape:connector-curvature="0"
                       style="opacity:1;fill:#6b4e40;stroke-width:0.63357085" />
                    <path
                       d="m 121.1,158.2 -0.2,-0.7 -13.4,8.9 v -1 l -5.2,3.1 -0.8,-1.8 -0.8,2.4 -1.6,-3.1 -0.3,2.8 -5.2,-4 -0.6,1.2 -5.2,-4.8 -1.3,1.5 L 75,152 l -0.8,1.5 -8.7,-9.8 -0.6,1.9 -3.2,-8.3 -1.6,-32.3 0.4,-4.5 -1.9,-3.1 -2.5,5.5 -1.9,21 5.4,21.4 1,-0.6 5.4,6.7 0.6,-0.8 11.6,9.1 0.6,-1 11.4,8.8 1,-0.6 8.2,4 h 1.5 l 8.2,-4 1,0.6 11.3,-8.8 0.6,1 11.6,-9.1 -3.7,2.2 z m -50.6,-37.6 5.2,5.5 -7.2,-1.7 8.8,3.5 1.3,3.3 0.8,3 0.8,-4.9 1,4.8 0.1,-6.3 9,1.1 5.7,-0.9 3.4,-1.4 h 1.7 l 3.4,1.4 5.7,0.9 9,-1.1 0.1,6.3 1,-5.7 1,6.2 1.3,-7.4 0.8,2.8 1.4,-3.9 5.2,-5.5 -2.7,-6.3 1,6.2 -3.6,3.9 -7.4,1.8 -4.8,-3.9 2.6,3.9 -5.8,-3 2.1,3.4 -3.2,0.3 -3.2,-4.5 1.9,4.5 -4.5,-1.3 -1.3,-2.4 0.2,2.4 -1.4,-0.2 -0.6,-1.8 -1.1,2.4 -3.2,1.2 2.3,-4.5 -5,4 0.8,-3.1 -5.6,3.6 0.8,-2.5 -3.4,2.2 3.1,-5.1 -6.4,4.2 1.3,-2.5 -3.4,2.1 -0.5,-1.9 -1.8,0.3 -4.3,-3.7 1,-5.9 z m 22.3,24.3 -10.4,-9.7 -0.1,4.9 1.4,5.8 v -2.8 l 0.6,-4.7 1.1,4.5 1.1,-1.3 2.2,5.3 0.5,-3.6 2.1,8.3 0.8,-3.4 2.2,8 -0.2,-9.5 0.8,-5.7 z m -10.9,-10.2 -0.8,-0.7 0.2,2.3 z m 27.5,16.3 0.8,2.1 0.8,-6.1 0.8,1 2.1,-7.2 c 0,0 0.6,2.5 0.6,2.9 0,0.4 4.6,-9.8 4.6,-9.8 l -11.7,10.9 0.4,2.2 -0.3,10.8 z"
                       id="SvgjsPath16143"
                       inkscape:connector-curvature="0"
                       style="opacity:1;fill:#5c3d2e;stroke-width:0.63357085" />
                  </g>
                </g>
              </g>
              <g
                 id="svga-group-mustache-single-move"
                 style="stroke-width:0.63357085">
                <g
                   id="svga-group-mustache-single"
                   style="stroke-width:0.63357085" />
              </g>
              <g
                 id="svga-group-nose-single-move"
                 style="stroke-width:0.63357085">
                <g
                   id="svga-group-nose-single"
                   style="stroke-width:0.63357085">
                  <path
                     transform="translate(0,1)"
                     d="m 104.02,101.62 6.37,11.09 -2.65,3.58 -2.86,-2.01 -1.86,3.72 h -6.3 l -1.79,-3.72 -2.93,1.86 -2.58,-3.65 6.73,-11.37 3.86,-1.65 z"
                     id="SvgjsPath16124"
                     inkscape:connector-curvature="0"
                     style="opacity:1;fill:#f0c7b1;stroke:none;stroke-width:0.63357085" />
                  <path
                     transform="translate(0,1)"
                     d="m 104.31,101.38 -1.02,-0.41 6.61,11.51 -2.05,2.93 -1.77,-1.21 0.28,-1.31 -1.4,0.6 -2.05,4.04 -2.7,0.1 -3.2,-0.1 -2.05,-4.04 -1.4,-0.6 0.28,1.31 -1.77,1.21 -2.04,-2.93 6.61,-11.51 0.42,-13.8 -1.45,14.21 -6.7,11.3 3.26,4.24 2.79,-2.01 1.58,3.53 h 6.84 l 1.58,-3.53 2.8,2.01 3.26,-4.24 z"
                     id="SvgjsPath16125"
                     inkscape:connector-curvature="0"
                     style="opacity:1;fill:#d19271;stroke:none;stroke-width:0.63357085" />
                  <path
                     transform="translate(0,1)"
                     d="m 96.51,113.01 1.67,0.79 3.93,0.1 1.96,-0.89 -0.74,-3.01 -1.27,-3.98 -2.6,5.23 z"
                     id="SvgjsPath16126"
                     inkscape:connector-curvature="0"
                     style="opacity:1;fill:#f8d5c3;stroke:none;stroke-width:0.63357085" />
                </g>
              </g>
              <g
                 id="svga-group-hair-front"
                 style="stroke-width:0.63357085">
                <path
                   d="M 79.5,54.5 67,63 60.7,92.7 c 0,0 1.6,32.2 1.4,33.3 -0.3,1.1 -8.7,15.5 -8.7,15.5 l 5.5,-16.9 -3,-36 0.3,32.7 -3.3,12.3 1.4,-20.4 -1.6,-35.7 2.3,-21.9 8.7,-10.9 9.3,-3 12.3,-13.9 21.3,-3 29.4,13.6 c 0,0 10.4,25.4 10.6,26.2 0.3,0.8 -1.9,23.2 -1.9,23.2 l -4.9,21.3 0.6,19.9 4.9,16.1 -9.8,-15.5 -2.2,-12.5 0.8,13.4 3,13.6 -5.7,-13.9 -2.2,-20.2 5.7,-42.5 -8.2,-8.5 -7.6,-5.5 -14.4,3 H 88.5 Z"
                   id="SvgjsPath15741"
                   inkscape:connector-curvature="0"
                   style="opacity:1;fill:#543c32;stroke:none;stroke-width:0.63357085" />
                <path
                   d="m 97.9,52.8 -0.2,-13.1 15.4,-6 14.1,6.8 6.9,9.1 0.8,8.9 -3.3,-9.3 -7.5,-7.3 -12.7,-3.9 -10.2,4.8 z m -8.1,1.9 -4,-4.6 7.5,-11.8 -4.6,11.4 z M 81.9,41.2 87.7,31.8 107,26 136,38.5 107.6,28.2 88.9,34 Z m 57.1,16.6 2.3,13.1 -5.8,36 1.7,22.2 3.7,6.9 -2.1,-7.7 -0.6,-21.8 6,-36.4 z M 75.2,52 61.3,60.9 58,90 63.4,62 Z"
                   id="SvgjsPath15742"
                   inkscape:connector-curvature="0"
                   style="opacity:1;fill:#5c453b;stroke:none;stroke-width:0.63357085" />
                <path
                   d="m 88.5,56.4 -4.6,-5.8 8.8,-13.6 20.8,-4.8 13.7,7.2 8.4,9.4 -7.8,-10.3 -14.8,-8 -22,5.3 -10.3,14.8 3.9,5 z m -9,-1.9 -3.1,-5 9.4,-18.5 20.7,-6.1 -21.3,3 -12.2,13.8 0.6,7.8 z m -7.6,-8.9 -14.3,10.5 -2.7,21.8 0.8,6.7 0.6,-7.3 3.4,-20.8 z m 7.6,8.9 -14.2,7.6 -6.1,30.3 2.7,22.2 -0.5,-23.4 6.6,-28 z m 56,-4.3 2.6,16 -6.1,37.9 1.3,12.9 -2.7,-12.1 6,-39.5 z m -30.9,6.2 0.2,-10.2 10.2,-6.4 14.8,8.9 5.1,12.5 v 6 l -1.6,-6.8 -5.8,-10.8 -12.9,-6.5 -8.1,4.5 z m 14.5,-3 5,-2.7 5.7,8.1 1.9,4.5 -3.4,-4.9 -4.7,-5.6 z"
                   id="SvgjsPath15743"
                   inkscape:connector-curvature="0"
                   style="opacity:1;fill:#4c342a;stroke:none;stroke-width:0.63357085" />
              </g>
              <g
                 id="svga-group-glasses-single-move"
                 style="stroke-width:0.63357085">
                <g
                   id="svga-group-glasses-single"
                   style="stroke-width:0.63357085">
                  <path
                     style="opacity:1;fill:#9ab4d3;stroke-width:0.63357085;fill-opacity:0.54433495"
                     d="m 73.4,88 -4.8,3.4 -1.6,6 0.8,6.3 2.3,4.3 3.2,2.7 4.9,1.8 4.5,0.1 4.3,-1.4 4.8,-3.8 3.1,-5.9 L 95,96.1 91.9,91 86.6,87.9 79.9,86.7 Z"
                     id="SvgjsPath15666"
                     inkscape:connector-curvature="0" />
                  <path
                     style="opacity:1;fill:#9ab4d3;stroke-width:0.63357085;fill-opacity:0.56157637"
                     d="m 126.6,88 4.8,3.4 1.6,6 -0.8,6.3 -2.3,4.3 -3.2,2.7 -4.9,1.8 -4.5,0.1 -4.3,-1.4 -4.8,-3.8 -3.1,-5.9 -0.1,-5.4 3.1,-5.1 5.3,-3.1 6.7,-1.2 z"
                     id="SvgjsPath15672"
                     inkscape:connector-curvature="0" />
                  <path
                     d="m 133.7,88.8 -6.5,-1.6 -7.4,-1.2 -6.9,1.1 -5.8,3.1 -3.1,0.2 -3.3,-0.4 H 99.4 L 96,90.5 92.9,90.3 87.1,87.2 80.2,86 72.8,87.2 66.3,88.8 63.1,89 v 4 l 2.2,0.9 0.9,3.2 0.8,6.6 2.2,4.4 3.8,3.2 4.9,1.9 4.9,0.1 4.4,-1.4 5.2,-4.1 3.6,-6.5 1.1,-4.6 L 96,95.9 95.6,94 96.8,93.2 99.4,93 h 1.3 l 2.6,0.2 1.2,0.8 -0.4,1.6 -1.1,0.8 1.1,4.6 3.6,6.5 5.2,4.1 4.4,1.4 4.9,-0.1 4.9,-1.9 3.8,-3.2 2.2,-4.4 0.8,-6.6 0.9,-3.2 2.2,-0.9 V 89 Z m -42.5,18.2 -4.5,3.5 -4.3,1.4 -4.3,-0.1 -4.4,-1.6 -3.2,-2.7 -2.1,-4.1 -0.7,-5.9 1.5,-4.8 4.4,-3.8 6.5,-1.2 5.9,1.2 4.9,3.1 3,4.9 0.1,4.1 z m 40.4,-3.7 -2.1,4.1 -3.2,2.7 -4.4,1.6 -4.3,0.1 -4.3,-1.4 -4.5,-3.5 -2.8,-6 0.1,-4.3 3,-4.9 4.9,-3.1 5.9,-1.2 6.5,1.2 4.4,3.8 1.5,4.8 z"
                     id="SvgjsPath15678"
                     inkscape:connector-curvature="0"
                     style="opacity:1;fill:#595959;stroke:none;stroke-width:0.63357085" />
                  <flowRoot
                     xml:space="preserve"
                     id="flowRoot1305"
                     style="fill:black;fill-opacity:1;stroke:none;font-family:SimSun;font-style:normal;font-weight:normal;font-size:96px;line-height:1.25;letter-spacing:-2.19000006px;word-spacing:0px;-inkscape-font-specification:SimSun;font-stretch:normal;font-variant:normal"><flowRegion
                       id="flowRegion1307"><rect
                         id="rect1309"
                         width="1105.1069"
                         height="113.13708"
                         x="274.76151"
                         y="946.75311" /></flowRegion><flowPara
                       id="flowPara1311"></flowPara></flowRoot>                </g>
              </g>
            </g>
          </g>
        </g>
        <rect
           style="display:none;opacity:0.5;fill:#ecf0f1;stroke-width:0.63357085"
           y="185"
           x="0"
           height="15"
           width="200"
           id="svga-credit-rect" />
        <text
           style="font-weight:400;font-size:10px;font-family:'Avenir Next', Roboto, Helvetica, Arial, sans-serif;text-anchor:start;display:none;fill:#333333;stroke-width:0.63357085"
           y="182.60825"
           x="33.40448"
           weight="400"
           anchor="start"
           size="10px"
           font-weight="400"
           font-size="10px"
           id="svga-credit-text">
          <tspan
             x="33.40448"
             dy="13"
             id="SvgjsTspan15425"
             style="stroke-width:0.63357085">Created on AvatarMaker.com</tspan>
        </text>
      </g>
    </g>
  </g>
</svg>
